# xmcd CD database file
# Copyright (C) 1996 Ti Kan
#
# Track frame offsets:
# 	182
# 	16770
# 	31612
# 	44205
# 	56330
# 	67487
# 	79685
# 	94367
# 	105575
# 	119760
#
# Disc length: 1773 seconds
#
# Revision: 1
# Processed by: cddbd v1.4b41PL1 Copyright (c) Steve Scherf et al.
# Submitted via: DiscPlay 3.4
#
DISCID=8706eb0a
DTITLE=Six Shooter - Six Shooter
DYEAR=1900
DGENRE=
TTITLE0=Stepping Stone
TTITLE1=Daddy Don't You Sign The Papers
TTITLE2=Do I Do It To You Too
TTITLE3=Goin' Steady
TTITLE4=High School Confidential
TTITLE5=Jim Dandy
TTITLE6=Calico Road
TTITLE7=Cool Me In The River Of Love
TTITLE8=Baby Come Back
TTITLE9=Love In The Heart "Peace In The World"
EXTD=
EXTT0=
EXTT1=
EXTT2=
EXTT3=
EXTT4=
EXTT5=
EXTT6=
EXTT7=
EXTT8=
EXTT9=
PLAYORDER=
